<svg width="13113" height="10192" viewBox="0 0 13113 10192" fill="none" xmlns="http://www.w3.org/2000/svg">
<g filter="url(#filter0_d_761_3762)">
<path d="M4051.97 7407.9C4578.4 7039.29 4311.47 5749.78 3455.77 4527.71C2600.06 3305.64 1479.62 2613.77 953.188 2982.38C426.757 3350.99 693.685 4640.5 1549.39 5862.57C2405.09 7084.64 3525.54 7776.51 4051.97 7407.9Z" fill="url(#paint0_linear_761_3762)"/>
</g>
<g filter="url(#filter1_d_761_3762)">
<path d="M3991.41 7090.03C4423.83 6787.24 4219.43 5749.23 3534.87 4771.58C2850.31 3793.92 1944.81 3246.83 1512.38 3549.62C1079.96 3852.4 1284.35 4890.41 1968.92 5868.07C2653.48 6845.73 3558.98 7392.82 3991.41 7090.03Z" fill="#60A5FA"/>
</g>
<g filter="url(#filter2_d_761_3762)">
<path d="M9061.03 7407.91C9587.46 7776.52 10707.9 7084.65 11563.6 5862.58C12419.3 4640.51 12686.2 3351 12159.8 2982.39C11633.4 2613.78 10512.9 3305.65 9657.23 4527.72C8801.53 5749.79 8534.6 7039.3 9061.03 7407.91Z" fill="url(#paint1_linear_761_3762)"/>
</g>
<g filter="url(#filter3_d_761_3762)">
<path d="M9121.55 7058.65C9553.97 7361.44 10459.5 6814.35 11144 5836.69C11828.6 4859.03 12033 3821.03 11600.6 3518.24C11168.1 3215.45 10262.6 3762.54 9578.08 4740.2C8893.52 5717.86 8689.12 6755.86 9121.55 7058.65Z" fill="#60A5FA"/>
</g>
<path d="M4420.94 6563.54C4646.55 6405.56 4530.63 5850.74 4162.02 5324.31C3793.41 4797.88 3311.69 4499.18 3086.08 4657.16C2860.47 4815.14 2976.39 5369.96 3345 5896.39C3713.61 6422.82 4195.33 6721.51 4420.94 6563.54Z" fill="#FCD34D"/>
<path d="M8737.99 6563.54C8963.61 6721.51 9445.32 6422.82 9813.93 5896.39C10182.5 5369.96 10298.5 4815.14 10072.9 4657.16C9847.24 4499.18 9365.53 4797.88 8996.91 5324.31C8628.3 5850.74 8512.38 6405.56 8737.99 6563.54Z" fill="#FCD34D"/>
<g filter="url(#filter4_d_761_3762)">
<path d="M4433.63 5616.55C4950.43 5318.17 4811.19 4109.49 4122.64 2916.87C3434.08 1724.25 2456.94 999.325 1940.14 1297.7C1423.34 1596.08 1562.58 2804.76 2251.13 3997.38C2939.69 5190 3916.83 5914.92 4433.63 5616.55Z" fill="url(#paint2_linear_761_3762)"/>
</g>
<g filter="url(#filter5_d_761_3762)">
<path d="M4392.03 5267.77C4809.44 5026.78 4701.28 4057.97 4150.43 3103.87C3599.58 2149.78 2814.65 1571.7 2397.24 1812.7C1979.82 2053.69 2087.99 3022.5 2638.83 3976.6C3189.68 4930.69 3974.61 5508.77 4392.03 5267.77Z" fill="#93C5FD"/>
</g>
<g filter="url(#filter6_d_761_3762)">
<path d="M8635.97 5616.54C9152.77 5914.92 10129.9 5189.99 10818.5 3997.37C11507 2804.76 11646.3 1596.07 11129.5 1297.69C10612.7 999.317 9635.52 1724.24 8946.96 2916.86C8258.4 4109.48 8119.16 5318.17 8635.97 5616.54Z" fill="url(#paint3_linear_761_3762)"/>
</g>
<g filter="url(#filter7_d_761_3762)">
<path d="M8677.59 5267.77C9095.01 5508.77 9879.94 4930.69 10430.8 3976.59C10981.6 3022.5 11089.8 2053.69 10672.4 1812.69C10255 1571.7 9470.04 2149.78 8919.19 3103.87C8368.34 4057.97 8260.18 5026.78 8677.59 5267.77Z" fill="#93C5FD"/>
</g>
<g filter="url(#filter8_d_761_3762)">
<path d="M6579.39 8810.33C8759.82 8810.33 10527.4 7042.74 10527.4 4862.31C10527.4 2681.88 8759.82 914.285 6579.39 914.285C4398.96 914.285 2631.37 2681.88 2631.37 4862.31C2631.37 7042.74 4398.96 8810.33 6579.39 8810.33Z" fill="url(#paint4_linear_761_3762)"/>
</g>
<path d="M6579.43 8807.05C7994.33 8807.05 9141.33 7813.2 9141.33 6587.22C9141.33 5361.24 7994.33 4367.39 6579.43 4367.39C5164.53 4367.39 4017.52 5361.24 4017.52 6587.22C4017.52 7813.2 5164.53 8807.05 6579.43 8807.05Z" fill="url(#paint5_radial_761_3762)"/>
<path d="M5540.41 5651.91C6091.26 5651.91 6537.81 5205.36 6537.81 4654.51C6537.81 4103.67 6091.26 3657.12 5540.41 3657.12C4989.56 3657.12 4543.02 4103.67 4543.02 4654.51C4543.02 5205.36 4989.56 5651.91 5540.41 5651.91Z" fill="white"/>
<path d="M7618.35 5651.91C8169.19 5651.91 8615.74 5205.36 8615.74 4654.51C8615.74 4103.67 8169.19 3657.12 7618.35 3657.12C7067.5 3657.12 6620.95 4103.67 6620.95 4654.51C6620.95 5205.36 7067.5 5651.91 7618.35 5651.91Z" fill="white"/>
<path opacity="0.3" d="M5540.41 5651.91C6091.26 5651.91 6537.81 5205.36 6537.81 4654.51C6537.81 4103.67 6091.26 3657.12 5540.41 3657.12C4989.56 3657.12 4543.02 4103.67 4543.02 4654.51C4543.02 5205.36 4989.56 5651.91 5540.41 5651.91Z" stroke="#3B82F6"/>
<path opacity="0.3" d="M7618.35 5651.91C8169.19 5651.91 8615.74 5205.36 8615.74 4654.51C8615.74 4103.67 8169.19 3657.12 7618.35 3657.12C7067.5 3657.12 6620.95 4103.67 6620.95 4654.51C6620.95 5205.36 7067.5 5651.91 7618.35 5651.91Z" stroke="#3B82F6"/>
<path d="M6049.42 2869.43C6448.48 2762.5 6637.14 2172.6 6470.81 1551.84C6304.48 931.085 5846.14 514.544 5447.08 621.471C5048.02 728.399 4859.36 1318.3 5025.69 1939.06C5192.02 2559.81 5650.36 2976.36 6049.42 2869.43Z" fill="#FCD34D"/>
<path d="M6579.41 2659.72C7038.45 2659.72 7410.58 2064.32 7410.58 1329.86C7410.58 595.399 7038.45 0 6579.41 0C6120.37 0 5748.25 595.399 5748.25 1329.86C5748.25 2064.32 6120.37 2659.72 6579.41 2659.72Z" fill="#7DD3FC"/>
<path d="M7109.38 2869.43C7508.44 2976.35 7966.78 2559.81 8133.11 1939.06C8299.44 1318.3 8110.78 728.396 7711.72 621.469C7312.66 514.541 6854.33 931.082 6687.99 1551.84C6521.66 2172.59 6710.33 2762.5 7109.38 2869.43Z" fill="#FBBF24"/>
<path d="M6291.08 2443.03C6609.28 2398.31 6810.26 1956.71 6739.98 1456.68C6669.71 956.652 6354.79 587.552 6036.59 632.272C5718.39 676.992 5517.41 1118.6 5587.68 1618.63C5657.95 2118.65 5972.88 2487.75 6291.08 2443.03Z" fill="#93C5FD"/>
<path d="M6867.79 2443.04C7185.99 2487.76 7500.91 2118.66 7571.19 1618.63C7641.46 1118.6 7440.48 676.996 7122.28 632.276C6804.08 587.556 6489.16 956.656 6418.88 1456.68C6348.61 1956.71 6549.59 2398.32 6867.79 2443.04Z" fill="#FDE047"/>
<path d="M5517.41 5343.83C5895.57 5343.83 6202.13 5037.26 6202.13 4659.1C6202.13 4280.94 5895.57 3974.37 5517.41 3974.37C5139.24 3974.37 4832.68 4280.94 4832.68 4659.1C4832.68 5037.26 5139.24 5343.83 5517.41 5343.83Z" fill="#1F2937"/>
<path d="M7613.52 5343.83C7991.68 5343.83 8298.24 5037.26 8298.24 4659.1C8298.24 4280.94 7991.68 3974.37 7613.52 3974.37C7235.35 3974.37 6928.79 4280.94 6928.79 4659.1C6928.79 5037.26 7235.35 5343.83 7613.52 5343.83Z" fill="#1F2937"/>
<path d="M5731.44 4659.11C5896.89 4659.11 6031.01 4524.99 6031.01 4359.55C6031.01 4194.1 5896.89 4059.98 5731.44 4059.98C5566 4059.98 5431.88 4194.1 5431.88 4359.55C5431.88 4524.99 5566 4659.11 5731.44 4659.11Z" fill="#67E8F9"/>
<path d="M7827.56 4659.11C7993.01 4659.11 8127.13 4524.99 8127.13 4359.55C8127.13 4194.1 7993.01 4059.98 7827.56 4059.98C7662.11 4059.98 7527.99 4194.1 7527.99 4359.55C7527.99 4524.99 7662.11 4659.11 7827.56 4659.11Z" fill="#67E8F9"/>
<path d="M6579.41 5779.35L7863.28 6849.23L6579.41 6421.28V5779.35Z" fill="#FFA000"/>
<path d="M5975.36 8370.37L5673.31 9215.21" stroke="#E07820" stroke-width="100" stroke-linecap="round"/>
<path d="M7096.2 8312.14L7391.37 9215.21" stroke="#E07820" stroke-width="100" stroke-linecap="round"/>
<path d="M5673.23 9215.21C5282.76 9215.21 4814.2 9364.27 4658.01 9587.85C4970.39 9513.33 5360.86 9438.8 5673.23 9215.21Z" fill="#E07820" stroke="#E07820" stroke-width="25" stroke-linecap="round"/>
<path d="M5673.27 9215.21C5517.08 9587.85 5360.89 9960.49 5282.8 10184.1C5438.99 9960.49 5595.17 9662.38 5673.27 9215.21Z" fill="#E07820" stroke="#E07820" stroke-width="25" stroke-linecap="round"/>
<path d="M5673.31 9215.21C5907.6 9587.85 5985.69 9960.49 6063.78 10184.1C5907.6 9811.44 5751.41 9513.33 5673.31 9215.21Z" fill="#E07820" stroke="#E07820" stroke-width="25" stroke-linecap="round"/>
<path d="M7391.39 9215.21C7781.86 9215.21 8250.43 9364.27 8406.62 9587.85C8094.24 9513.33 7703.77 9438.8 7391.39 9215.21Z" fill="#E07820" stroke="#E07820" stroke-width="25" stroke-linecap="round"/>
<path d="M7391.35 9215.21C7235.16 9587.85 7078.97 9960.49 7000.88 10184.1C7157.06 9960.49 7313.25 9662.38 7391.35 9215.21Z" fill="#E07820" stroke="#E07820" stroke-width="25" stroke-linecap="round"/>
<path d="M7391.39 9215.21C7625.67 9587.85 7703.77 9960.49 7781.86 10184.1C7625.67 9811.44 7469.48 9513.33 7391.39 9215.21Z" fill="#E07820" stroke="#E07820" stroke-width="25" stroke-linecap="round"/>
<defs>
<filter id="filter0_d_761_3762" x="679.211" y="2883.31" width="3646.73" height="4631.67" filterUnits="userSpaceOnUse" color-interpolation-filters="sRGB">
<feFlood flood-opacity="0" result="BackgroundImageFix"/>
<feColorMatrix in="SourceAlpha" type="matrix" values="0 0 0 0 0 0 0 0 0 0 0 0 0 0 0 0 0 0 127 0" result="hardAlpha"/>
<feOffset dy="4"/>
<feGaussianBlur stdDeviation="2"/>
<feComposite in2="hardAlpha" operator="out"/>
<feColorMatrix type="matrix" values="0 0 0 0 0.320002 0 0 0 0 0.382434 0 0 0 0 0.45874 0 0 0 0.25 0"/>
<feBlend mode="normal" in2="BackgroundImageFix" result="effect1_dropShadow_761_3762"/>
<feBlend mode="normal" in="SourceGraphic" in2="effect1_dropShadow_761_3762" result="shape"/>
</filter>
<filter id="filter1_d_761_3762" x="1281.61" y="3466.17" width="2940.57" height="3715.31" filterUnits="userSpaceOnUse" color-interpolation-filters="sRGB">
<feFlood flood-opacity="0" result="BackgroundImageFix"/>
<feColorMatrix in="SourceAlpha" type="matrix" values="0 0 0 0 0 0 0 0 0 0 0 0 0 0 0 0 0 0 127 0" result="hardAlpha"/>
<feOffset dy="4"/>
<feGaussianBlur stdDeviation="2"/>
<feComposite in2="hardAlpha" operator="out"/>
<feColorMatrix type="matrix" values="0 0 0 0 0.320002 0 0 0 0 0.382434 0 0 0 0 0.45874 0 0 0 0.25 0"/>
<feBlend mode="normal" in2="BackgroundImageFix" result="effect1_dropShadow_761_3762"/>
<feBlend mode="normal" in="SourceGraphic" in2="effect1_dropShadow_761_3762" result="shape"/>
</filter>
<filter id="filter2_d_761_3762" x="8787.05" y="2883.31" width="3646.74" height="4631.67" filterUnits="userSpaceOnUse" color-interpolation-filters="sRGB">
<feFlood flood-opacity="0" result="BackgroundImageFix"/>
<feColorMatrix in="SourceAlpha" type="matrix" values="0 0 0 0 0 0 0 0 0 0 0 0 0 0 0 0 0 0 127 0" result="hardAlpha"/>
<feOffset dy="4"/>
<feGaussianBlur stdDeviation="2"/>
<feComposite in2="hardAlpha" operator="out"/>
<feColorMatrix type="matrix" values="0 0 0 0 0.320002 0 0 0 0 0.382434 0 0 0 0 0.45874 0 0 0 0.25 0"/>
<feBlend mode="normal" in2="BackgroundImageFix" result="effect1_dropShadow_761_3762"/>
<feBlend mode="normal" in="SourceGraphic" in2="effect1_dropShadow_761_3762" result="shape"/>
</filter>
<filter id="filter3_d_761_3762" x="8890.77" y="3434.79" width="2940.57" height="3715.31" filterUnits="userSpaceOnUse" color-interpolation-filters="sRGB">
<feFlood flood-opacity="0" result="BackgroundImageFix"/>
<feColorMatrix in="SourceAlpha" type="matrix" values="0 0 0 0 0 0 0 0 0 0 0 0 0 0 0 0 0 0 127 0" result="hardAlpha"/>
<feOffset dy="4"/>
<feGaussianBlur stdDeviation="2"/>
<feComposite in2="hardAlpha" operator="out"/>
<feColorMatrix type="matrix" values="0 0 0 0 0.320002 0 0 0 0 0.382434 0 0 0 0 0.45874 0 0 0 0.25 0"/>
<feBlend mode="normal" in2="BackgroundImageFix" result="effect1_dropShadow_761_3762"/>
<feBlend mode="normal" in="SourceGraphic" in2="effect1_dropShadow_761_3762" result="shape"/>
</filter>
<filter id="filter4_d_761_3762" x="1623.95" y="1230.62" width="3125.88" height="4461.02" filterUnits="userSpaceOnUse" color-interpolation-filters="sRGB">
<feFlood flood-opacity="0" result="BackgroundImageFix"/>
<feColorMatrix in="SourceAlpha" type="matrix" values="0 0 0 0 0 0 0 0 0 0 0 0 0 0 0 0 0 0 127 0" result="hardAlpha"/>
<feOffset dy="4"/>
<feGaussianBlur stdDeviation="2"/>
<feComposite in2="hardAlpha" operator="out"/>
<feColorMatrix type="matrix" values="0 0 0 0 0.320002 0 0 0 0 0.382434 0 0 0 0 0.45874 0 0 0 0.25 0"/>
<feBlend mode="normal" in2="BackgroundImageFix" result="effect1_dropShadow_761_3762"/>
<feBlend mode="normal" in="SourceGraphic" in2="effect1_dropShadow_761_3762" result="shape"/>
</filter>
<filter id="filter5_d_761_3762" x="2139.15" y="1758.01" width="2510.96" height="3572.45" filterUnits="userSpaceOnUse" color-interpolation-filters="sRGB">
<feFlood flood-opacity="0" result="BackgroundImageFix"/>
<feColorMatrix in="SourceAlpha" type="matrix" values="0 0 0 0 0 0 0 0 0 0 0 0 0 0 0 0 0 0 127 0" result="hardAlpha"/>
<feOffset dy="4"/>
<feGaussianBlur stdDeviation="2"/>
<feComposite in2="hardAlpha" operator="out"/>
<feColorMatrix type="matrix" values="0 0 0 0 0.320002 0 0 0 0 0.382434 0 0 0 0 0.45874 0 0 0 0.25 0"/>
<feBlend mode="normal" in2="BackgroundImageFix" result="effect1_dropShadow_761_3762"/>
<feBlend mode="normal" in="SourceGraphic" in2="effect1_dropShadow_761_3762" result="shape"/>
</filter>
<filter id="filter6_d_761_3762" x="8319.77" y="1230.61" width="3125.88" height="4461.02" filterUnits="userSpaceOnUse" color-interpolation-filters="sRGB">
<feFlood flood-opacity="0" result="BackgroundImageFix"/>
<feColorMatrix in="SourceAlpha" type="matrix" values="0 0 0 0 0 0 0 0 0 0 0 0 0 0 0 0 0 0 127 0" result="hardAlpha"/>
<feOffset dy="4"/>
<feGaussianBlur stdDeviation="2"/>
<feComposite in2="hardAlpha" operator="out"/>
<feColorMatrix type="matrix" values="0 0 0 0 0.320002 0 0 0 0 0.382434 0 0 0 0 0.45874 0 0 0 0.25 0"/>
<feBlend mode="normal" in2="BackgroundImageFix" result="effect1_dropShadow_761_3762"/>
<feBlend mode="normal" in="SourceGraphic" in2="effect1_dropShadow_761_3762" result="shape"/>
</filter>
<filter id="filter7_d_761_3762" x="8419.51" y="1758.01" width="2510.96" height="3572.45" filterUnits="userSpaceOnUse" color-interpolation-filters="sRGB">
<feFlood flood-opacity="0" result="BackgroundImageFix"/>
<feColorMatrix in="SourceAlpha" type="matrix" values="0 0 0 0 0 0 0 0 0 0 0 0 0 0 0 0 0 0 127 0" result="hardAlpha"/>
<feOffset dy="4"/>
<feGaussianBlur stdDeviation="2"/>
<feComposite in2="hardAlpha" operator="out"/>
<feColorMatrix type="matrix" values="0 0 0 0 0.320002 0 0 0 0 0.382434 0 0 0 0 0.45874 0 0 0 0.25 0"/>
<feBlend mode="normal" in2="BackgroundImageFix" result="effect1_dropShadow_761_3762"/>
<feBlend mode="normal" in="SourceGraphic" in2="effect1_dropShadow_761_3762" result="shape"/>
</filter>
<filter id="filter8_d_761_3762" x="2621.37" y="908.285" width="7916.05" height="7916.05" filterUnits="userSpaceOnUse" color-interpolation-filters="sRGB">
<feFlood flood-opacity="0" result="BackgroundImageFix"/>
<feColorMatrix in="SourceAlpha" type="matrix" values="0 0 0 0 0 0 0 0 0 0 0 0 0 0 0 0 0 0 127 0" result="hardAlpha"/>
<feOffset dy="4"/>
<feGaussianBlur stdDeviation="5"/>
<feComposite in2="hardAlpha" operator="out"/>
<feColorMatrix type="matrix" values="0 0 0 0 0.329273 0 0 0 0 0.376598 0 0 0 0 0.402081 0 0 0 0.25 0"/>
<feBlend mode="normal" in2="BackgroundImageFix" result="effect1_dropShadow_761_3762"/>
<feBlend mode="normal" in="SourceGraphic" in2="effect1_dropShadow_761_3762" result="shape"/>
</filter>
<linearGradient id="paint0_linear_761_3762" x1="-1.13914e-10" y1="3649.81" x2="6111.81" y2="9179.56" gradientUnits="userSpaceOnUse">
<stop stop-color="#93C5FD"/>
<stop offset="1" stop-color="#2563EB"/>
</linearGradient>
<linearGradient id="paint1_linear_761_3762" x1="11206.6" y1="2314.96" x2="7263.24" y2="8997.61" gradientUnits="userSpaceOnUse">
<stop stop-color="#93C5FD"/>
<stop offset="1" stop-color="#2563EB"/>
</linearGradient>
<linearGradient id="paint2_linear_761_3762" x1="1004.39" y1="1837.96" x2="6113.53" y2="7649.33" gradientUnits="userSpaceOnUse">
<stop stop-color="#93C5FD"/>
<stop offset="1" stop-color="#2563EB"/>
</linearGradient>
<linearGradient id="paint3_linear_761_3762" x1="10193.7" y1="757.437" x2="6868.73" y2="7525.59" gradientUnits="userSpaceOnUse">
<stop stop-color="#93C5FD"/>
<stop offset="1" stop-color="#2563EB"/>
</linearGradient>
<linearGradient id="paint4_linear_761_3762" x1="2631.37" y1="914.285" x2="2634.67" y2="8807.05" gradientUnits="userSpaceOnUse">
<stop stop-color="#7DD3FC"/>
<stop offset="1" stop-color="#3874FF"/>
</linearGradient>
<radialGradient id="paint5_radial_761_3762" cx="0" cy="0" r="1" gradientUnits="userSpaceOnUse" gradientTransform="translate(6579.43 6587.22) scale(2561.9 2219.83)">
<stop stop-color="#1E40AF" stop-opacity="0.3"/>
<stop offset="1" stop-color="#1E40AF" stop-opacity="0"/>
</radialGradient>
</defs>
</svg>
