<svg width="7917" height="9385" viewBox="0 0 7917 9385" fill="none" xmlns="http://www.w3.org/2000/svg">
<path d="M1799.57 6096.54C2025.18 5938.56 1909.26 5383.74 1540.65 4857.31C1172.04 4330.88 690.326 4032.18 464.712 4190.16C239.099 4348.14 355.021 4902.96 723.633 5429.39C1092.24 5955.82 1573.96 6254.51 1799.57 6096.54Z" fill="#FCD34D"/>
<path d="M6116.63 6096.54C6342.24 6254.51 6823.95 5955.82 7192.57 5429.39C7561.18 4902.96 7677.1 4348.14 7451.49 4190.16C7225.87 4032.18 6744.16 4330.88 6375.55 4857.31C6006.94 5383.74 5891.01 5938.56 6116.63 6096.54Z" fill="#FCD34D"/>
<g filter="url(#filter0_d_761_3805)">
<path d="M3958.02 8343.33C6138.46 8343.33 7906.05 6575.74 7906.05 4395.31C7906.05 2214.88 6138.46 447.285 3958.02 447.285C1777.59 447.285 10 2214.88 10 4395.31C10 6575.74 1777.59 8343.33 3958.02 8343.33Z" fill="url(#paint0_linear_761_3805)"/>
</g>
<path d="M3958.06 8340.05C5372.96 8340.05 6519.96 7346.2 6519.96 6120.22C6519.96 4894.24 5372.96 3900.39 3958.06 3900.39C2543.16 3900.39 1396.16 4894.24 1396.16 6120.22C1396.16 7346.2 2543.16 8340.05 3958.06 8340.05Z" fill="url(#paint1_radial_761_3805)"/>
<path d="M2919.04 5184.91C3469.89 5184.91 3916.44 4738.36 3916.44 4187.51C3916.44 3636.67 3469.89 3190.12 2919.04 3190.12C2368.2 3190.12 1921.65 3636.67 1921.65 4187.51C1921.65 4738.36 2368.2 5184.91 2919.04 5184.91Z" fill="white"/>
<path d="M4996.98 5184.91C5547.83 5184.91 5994.38 4738.36 5994.38 4187.51C5994.38 3636.67 5547.83 3190.12 4996.98 3190.12C4446.14 3190.12 3999.59 3636.67 3999.59 4187.51C3999.59 4738.36 4446.14 5184.91 4996.98 5184.91Z" fill="white"/>
<path opacity="0.3" d="M2919.04 5184.91C3469.89 5184.91 3916.44 4738.36 3916.44 4187.51C3916.44 3636.67 3469.89 3190.12 2919.04 3190.12C2368.2 3190.12 1921.65 3636.67 1921.65 4187.51C1921.65 4738.36 2368.2 5184.91 2919.04 5184.91Z" stroke="#3B82F6"/>
<path opacity="0.3" d="M4996.98 5184.91C5547.83 5184.91 5994.38 4738.36 5994.38 4187.51C5994.38 3636.67 5547.83 3190.12 4996.98 3190.12C4446.14 3190.12 3999.59 3636.67 3999.59 4187.51C3999.59 4738.36 4446.14 5184.91 4996.98 5184.91Z" stroke="#3B82F6"/>
<path d="M3427.53 2869.43C3826.59 2762.5 4015.25 2172.6 3848.92 1551.84C3682.59 931.085 3224.25 514.544 2825.19 621.471C2426.13 728.399 2237.47 1318.3 2403.8 1939.06C2570.13 2559.81 3028.47 2976.36 3427.53 2869.43Z" fill="#FCD34D"/>
<path d="M3957.52 2659.72C4416.56 2659.72 4788.68 2064.32 4788.68 1329.86C4788.68 595.399 4416.56 0 3957.52 0C3498.48 0 3126.36 595.399 3126.36 1329.86C3126.36 2064.32 3498.48 2659.72 3957.52 2659.72Z" fill="#7DD3FC"/>
<path d="M4487.49 2869.42C4886.55 2976.35 5344.89 2559.81 5511.22 1939.06C5677.55 1318.3 5488.89 728.395 5089.83 621.468C4690.77 514.541 4232.44 931.082 4066.1 1551.84C3899.77 2172.59 4088.44 2762.5 4487.49 2869.42Z" fill="#FBBF24"/>
<path d="M3669.18 2443.03C3987.38 2398.31 4188.37 1956.71 4118.09 1456.68C4047.82 956.651 3732.9 587.551 3414.7 632.271C3096.5 676.991 2895.52 1118.6 2965.79 1618.63C3036.06 2118.65 3350.98 2487.75 3669.18 2443.03Z" fill="#93C5FD"/>
<path d="M4245.9 2443.04C4564.1 2487.76 4879.02 2118.66 4949.29 1618.63C5019.57 1118.6 4818.59 676.996 4500.39 632.276C4182.19 587.556 3867.27 956.656 3796.99 1456.68C3726.72 1956.71 3927.7 2398.32 4245.9 2443.04Z" fill="#FDE047"/>
<path d="M2896.04 4876.83C3274.2 4876.83 3580.77 4570.26 3580.77 4192.1C3580.77 3813.94 3274.2 3507.37 2896.04 3507.37C2517.88 3507.37 2211.31 3813.94 2211.31 4192.1C2211.31 4570.26 2517.88 4876.83 2896.04 4876.83Z" fill="#1F2937"/>
<path d="M4992.15 4876.83C5370.31 4876.83 5676.88 4570.26 5676.88 4192.1C5676.88 3813.94 5370.31 3507.37 4992.15 3507.37C4613.98 3507.37 4307.42 3813.94 4307.42 4192.1C4307.42 4570.26 4613.98 4876.83 4992.15 4876.83Z" fill="#1F2937"/>
<path d="M3110.08 4192.11C3275.52 4192.11 3409.64 4057.99 3409.64 3892.55C3409.64 3727.1 3275.52 3592.98 3110.08 3592.98C2944.63 3592.98 2810.51 3727.1 2810.51 3892.55C2810.51 4057.99 2944.63 4192.11 3110.08 4192.11Z" fill="#67E8F9"/>
<path d="M5206.19 4192.11C5371.64 4192.11 5505.76 4057.99 5505.76 3892.55C5505.76 3727.1 5371.64 3592.98 5206.19 3592.98C5040.75 3592.98 4906.62 3727.1 4906.62 3892.55C4906.62 4057.99 5040.75 4192.11 5206.19 4192.11Z" fill="#67E8F9"/>
<path d="M3958.05 5312.35L5241.91 6382.23L3958.05 5954.28V5312.35Z" fill="#FFA000"/>
<path d="M3210.63 7789.5L2973.94 8408.07" stroke="#E07820" stroke-width="100" stroke-linecap="round"/>
<path d="M4448.63 7773.5L4691.99 8408.07" stroke="#E07820" stroke-width="100" stroke-linecap="round"/>
<path d="M2973.86 8408.07C2583.39 8408.07 2114.82 8557.13 1958.63 8780.71C2271.01 8706.19 2661.48 8631.66 2973.86 8408.07Z" fill="#E07820" stroke="#E07820" stroke-width="25" stroke-linecap="round"/>
<path d="M2973.89 8408.07C2817.7 8780.71 2661.52 9153.36 2583.42 9376.94C2739.61 9153.36 2895.8 8855.24 2973.89 8408.07Z" fill="#E07820" stroke="#E07820" stroke-width="25" stroke-linecap="round"/>
<path d="M2973.94 8408.07C3208.22 8780.71 3286.31 9153.36 3364.41 9376.94C3208.22 9004.3 3052.03 8706.19 2973.94 8408.07Z" fill="#E07820" stroke="#E07820" stroke-width="25" stroke-linecap="round"/>
<path d="M4692.02 8408.07C5082.49 8408.07 5551.05 8557.13 5707.24 8780.71C5394.86 8706.19 5004.39 8631.66 4692.02 8408.07Z" fill="#E07820" stroke="#E07820" stroke-width="25" stroke-linecap="round"/>
<path d="M4691.97 8408.07C4535.78 8780.71 4379.59 9153.36 4301.5 9376.94C4457.69 9153.36 4613.88 8855.24 4691.97 8408.07Z" fill="#E07820" stroke="#E07820" stroke-width="25" stroke-linecap="round"/>
<path d="M4692.02 8408.07C4926.3 8780.71 5004.39 9153.36 5082.49 9376.94C4926.3 9004.3 4770.11 8706.19 4692.02 8408.07Z" fill="#E07820" stroke="#E07820" stroke-width="25" stroke-linecap="round"/>
<defs>
<filter id="filter0_d_761_3805" x="0" y="441.285" width="7916.05" height="7916.05" filterUnits="userSpaceOnUse" color-interpolation-filters="sRGB">
<feFlood flood-opacity="0" result="BackgroundImageFix"/>
<feColorMatrix in="SourceAlpha" type="matrix" values="0 0 0 0 0 0 0 0 0 0 0 0 0 0 0 0 0 0 127 0" result="hardAlpha"/>
<feOffset dy="4"/>
<feGaussianBlur stdDeviation="5"/>
<feComposite in2="hardAlpha" operator="out"/>
<feColorMatrix type="matrix" values="0 0 0 0 0.329273 0 0 0 0 0.376598 0 0 0 0 0.402081 0 0 0 0.25 0"/>
<feBlend mode="normal" in2="BackgroundImageFix" result="effect1_dropShadow_761_3805"/>
<feBlend mode="normal" in="SourceGraphic" in2="effect1_dropShadow_761_3805" result="shape"/>
</filter>
<linearGradient id="paint0_linear_761_3805" x1="10" y1="447.285" x2="13.2979" y2="8340.05" gradientUnits="userSpaceOnUse">
<stop stop-color="#7DD3FC"/>
<stop offset="1" stop-color="#3874FF"/>
</linearGradient>
<radialGradient id="paint1_radial_761_3805" cx="0" cy="0" r="1" gradientUnits="userSpaceOnUse" gradientTransform="translate(3958.06 6120.22) scale(2561.9 2219.83)">
<stop stop-color="#1E40AF" stop-opacity="0.3"/>
<stop offset="1" stop-color="#1E40AF" stop-opacity="0"/>
</radialGradient>
</defs>
</svg>
