<svg width="1439" height="1439" viewBox="0 0 1439 1439" fill="none" xmlns="http://www.w3.org/2000/svg">
<g filter="url(#filter0_i_1708_27326)">
<path d="M588.44 56.1471C546.326 101.146 482.262 121.327 420.606 108.707C318.256 87.7577 219.533 156.816 208.456 257.097C201.802 317.418 162.312 369.785 104.703 394.418C9.00718 435.339 -28.6712 547.258 23.7074 634.545C55.137 687.104 55.137 751.892 23.7074 804.456C-28.6712 891.742 8.99239 1003.46 104.703 1044.58C162.328 1069.22 201.818 1121.58 208.456 1181.9C219.329 1282.18 318.052 1351.24 420.606 1330.29C482.262 1317.69 546.122 1337.66 588.44 1382.85C658.546 1457.72 780.638 1457.72 850.561 1382.85C892.674 1337.85 956.738 1317.67 1018.39 1330.29C1120.74 1351.24 1219.47 1282.18 1230.54 1181.9C1237.2 1121.58 1276.69 1069.21 1334.3 1044.58C1429.99 1003.66 1467.67 891.742 1415.29 804.456C1383.86 751.896 1383.86 687.108 1415.29 634.545C1467.67 547.258 1430.01 435.535 1334.3 394.418C1276.67 369.784 1237.18 317.418 1230.54 257.097C1219.67 156.816 1120.95 87.7592 1018.39 108.707C956.738 121.309 892.878 101.338 850.561 56.1471C780.658 -18.7157 658.562 -18.7157 588.44 56.1471Z" fill="url(#paint0_linear_1708_27326)"/>
</g>
<path d="M595.74 62.9795C661.918 -7.66835 777.31 -7.64976 843.252 62.9717L843.257 62.9775L843.262 62.9824C888.005 110.764 955.408 131.786 1020.39 118.504L1020.4 118.505C1117.57 98.6553 1210.41 164.147 1220.6 258.175L1220.6 258.19C1227.65 322.223 1269.54 377.602 1330.35 403.604V403.605C1420.74 442.437 1455.85 547.53 1406.72 629.399L1406.71 629.413C1373.39 685.137 1373.39 753.868 1406.71 809.588L1406.71 809.595L1406.72 809.601C1455.66 891.16 1420.98 995.931 1331.42 1034.93L1330.37 1035.39C1269.56 1061.39 1227.67 1116.77 1220.6 1180.81C1210.21 1274.86 1117.36 1340.34 1020.4 1320.5C955.402 1307.19 887.794 1328.43 843.26 1376.02L843.253 1376.03C777.289 1446.65 661.898 1446.67 595.738 1376.02H595.739C550.996 1328.24 483.591 1307.21 418.604 1320.5C321.425 1340.34 228.593 1274.85 218.398 1180.83L218.396 1180.81L218.225 1179.31C210.694 1115.91 168.986 1061.19 108.649 1035.39H108.65C18.2616 996.563 -16.8454 891.47 32.2822 809.601L32.2861 809.595L32.29 809.588C65.6092 753.864 65.6096 685.133 32.29 629.412L32.2861 629.405L32.2822 629.399L31.71 628.438C-16.5766 546.698 18.6411 442.094 108.634 403.611C169.438 377.613 211.331 322.23 218.396 258.194C228.786 164.135 321.644 98.6587 418.601 118.504C483.598 131.808 551.206 110.565 595.74 62.9795Z" stroke="url(#paint1_linear_1708_27326)" stroke-opacity="0.2" stroke-width="20"/>
<g filter="url(#filter1_dii_1708_27326)">
<path d="M603.307 216.751C642.235 252.856 644.355 302.687 669.675 343.531C677.339 339.699 684.401 336.164 693.074 331.832C696.101 340.504 699.229 349.38 703.561 361.587C713.649 353.618 721.813 347.268 731.901 339.401C738.055 357.356 745.21 373.09 748.847 389.528C755.603 420.19 773.457 440.664 801.094 453.779C820.456 462.959 839.521 472.743 859.393 480.509C877.144 487.469 896.006 485.654 914.665 482.933C940.588 479.203 955.815 464.172 962.171 439.563C965.299 427.355 967.012 414.748 969.537 401.644C984.364 406.993 986.883 419.395 990.816 429.179C1006.96 469.726 1030.75 505.831 1057.59 539.216C1088.15 577.237 1106.4 619.905 1117.7 666.3C1121.43 681.627 1124.35 697.166 1127.89 712.595C1139.69 764.334 1137.37 814.969 1118.21 864.892C1109.93 886.272 1103.89 908.466 1097.73 930.55C1088.65 962.823 1072.62 991.367 1053.25 1018.4C1022.49 1061.26 979.219 1080.23 928.387 1084.47C915.578 1085.58 902.464 1085.37 889.653 1084.26C851.124 1080.93 812.492 1077.9 774.065 1072.96C710.721 1064.79 648.692 1067.11 586.764 1085.37C559.635 1093.33 530.279 1094.55 501.735 1096.06C477.125 1097.37 452.921 1091.21 432.143 1077.09C386.052 1045.83 348.327 1007.6 331.585 952.532C326.541 936.094 320.895 919.75 316.453 903.21C305.966 864.078 300.922 824.539 305.458 783.789C310.299 741.124 312.215 698.362 326.134 656.805C344.691 601.227 373.845 552.922 414.384 510.959C449.286 474.854 482.771 437.333 518.47 402.135C566.579 354.729 594.818 298.752 599.361 231.178C599.666 228.355 600.878 225.626 603.302 216.75L603.307 216.751ZM505.978 729.531C500.535 756.964 522.118 773.911 545.212 789.442C559.937 799.326 571.738 796.707 582.63 783.186C607.647 752.422 612.283 691.807 592.21 657.313C585.047 645.012 569.212 638.451 555.392 643.495C529.671 652.871 510.308 668.207 508.691 698.462C508.292 706.94 507.182 715.415 505.978 729.531ZM558.521 892.628C556.402 914.518 567.193 922.682 583.029 924.7C592.812 925.912 603.102 924.801 612.988 923.284C676.73 913.501 740.378 903.413 804.121 893.231C812.59 891.917 820.965 889.9 829.231 887.483C833.165 886.271 836.793 883.448 840.328 881.032C845.771 877.2 844.864 866.103 839.116 862.678C824.594 854.107 808.962 855.311 793.125 856.93C753.282 860.965 713.445 866.009 673.406 868.425C634.266 870.639 597.255 879.615 558.521 892.628ZM850.806 629.171C821.958 642.388 818.024 643.897 814.192 653.375C802.798 681.715 797.348 710.563 805.012 741.227C810.259 762.005 843.745 777.943 864.32 762.403C890.041 743.041 902.238 713.988 893.065 683.326C886.512 660.944 875.415 641.277 850.806 629.171Z" fill="url(#paint2_linear_1708_27326)" shape-rendering="crispEdges"/>
</g>
<defs>
<filter id="filter0_i_1708_27326" x="0" y="0" width="1439" height="1443" filterUnits="userSpaceOnUse" color-interpolation-filters="sRGB">
<feFlood flood-opacity="0" result="BackgroundImageFix"/>
<feBlend mode="normal" in="SourceGraphic" in2="BackgroundImageFix" result="shape"/>
<feColorMatrix in="SourceAlpha" type="matrix" values="0 0 0 0 0 0 0 0 0 0 0 0 0 0 0 0 0 0 127 0" result="hardAlpha"/>
<feOffset dy="4"/>
<feGaussianBlur stdDeviation="2"/>
<feComposite in2="hardAlpha" operator="arithmetic" k2="-1" k3="1"/>
<feColorMatrix type="matrix" values="0 0 0 0 1 0 0 0 0 1 0 0 0 0 1 0 0 0 0.25 0"/>
<feBlend mode="normal" in2="shape" result="effect1_innerShadow_1708_27326"/>
</filter>
<filter id="filter1_dii_1708_27326" x="298.788" y="213.75" width="841.308" height="889.477" filterUnits="userSpaceOnUse" color-interpolation-filters="sRGB">
<feFlood flood-opacity="0" result="BackgroundImageFix"/>
<feColorMatrix in="SourceAlpha" type="matrix" values="0 0 0 0 0 0 0 0 0 0 0 0 0 0 0 0 0 0 127 0" result="hardAlpha"/>
<feOffset dy="2"/>
<feGaussianBlur stdDeviation="2.5"/>
<feComposite in2="hardAlpha" operator="out"/>
<feColorMatrix type="matrix" values="0 0 0 0 0.290196 0 0 0 0 0.227451 0 0 0 0 1 0 0 0 0.25 0"/>
<feBlend mode="normal" in2="BackgroundImageFix" result="effect1_dropShadow_1708_27326"/>
<feBlend mode="normal" in="SourceGraphic" in2="effect1_dropShadow_1708_27326" result="shape"/>
<feColorMatrix in="SourceAlpha" type="matrix" values="0 0 0 0 0 0 0 0 0 0 0 0 0 0 0 0 0 0 127 0" result="hardAlpha"/>
<feOffset dy="3"/>
<feGaussianBlur stdDeviation="2"/>
<feComposite in2="hardAlpha" operator="arithmetic" k2="-1" k3="1"/>
<feColorMatrix type="matrix" values="0 0 0 0 0.87451 0 0 0 0 0.933333 0 0 0 0 1 0 0 0 0.25 0"/>
<feBlend mode="normal" in2="shape" result="effect2_innerShadow_1708_27326"/>
<feColorMatrix in="SourceAlpha" type="matrix" values="0 0 0 0 0 0 0 0 0 0 0 0 0 0 0 0 0 0 127 0" result="hardAlpha"/>
<feOffset dy="1"/>
<feGaussianBlur stdDeviation="0.5"/>
<feComposite in2="hardAlpha" operator="arithmetic" k2="-1" k3="1"/>
<feColorMatrix type="matrix" values="0 0 0 0 1 0 0 0 0 1 0 0 0 0 1 0 0 0 0.1 0"/>
<feBlend mode="normal" in2="effect2_innerShadow_1708_27326" result="effect3_innerShadow_1708_27326"/>
</filter>
<linearGradient id="paint0_linear_1708_27326" x1="273.41" y1="129.51" x2="1146" y2="1330" gradientUnits="userSpaceOnUse">
<stop stop-color="#20183E"/>
<stop offset="0.621744" stop-color="#2E205C"/>
<stop offset="1" stop-color="#2D196C"/>
</linearGradient>
<linearGradient id="paint1_linear_1708_27326" x1="405.5" y1="110.5" x2="1129.5" y2="1325.5" gradientUnits="userSpaceOnUse">
<stop stop-color="white" stop-opacity="0.8"/>
<stop offset="1" stop-color="white" stop-opacity="0.6"/>
</linearGradient>
<linearGradient id="paint2_linear_1708_27326" x1="602" y1="274" x2="1018" y2="1301" gradientUnits="userSpaceOnUse">
<stop stop-color="white"/>
<stop offset="1" stop-color="white" stop-opacity="0.7"/>
</linearGradient>
</defs>
</svg>
